<?xml version="1.0" encoding="iso-8859-1"?>
<!-- Generator: Adobe Illustrator 19.0.0, SVG Export Plug-In . SVG Version: 6.00 Build 0)  -->
<svg version="1.1" id="Layer_1" xmlns="http://www.w3.org/2000/svg" xmlns:xlink="http://www.w3.org/1999/xlink" x="0px" y="0px"
	 viewBox="0 0 502 502" style="enable-background:new 0 0 502 502;" xml:space="preserve">
<g>
	<polygon style="fill:#D1DCEB;" points="378,10 125,10 125,103 219,103 219,291 125,291 125,492 471,492 471,103 	"/>
	<rect x="31" y="103" style="fill:#4EC9DC;" width="188" height="188"/>
	<polygon style="fill:#4EC9DC;" points="378,103 378,10 471,103 	"/>
	<g>
		<path d="M478.071,95.929l-93-93C383.196,1.054,380.652,0,378,0H125c-5.523,0-10,4.477-10,10v83H31c-5.523,0-10,4.477-10,10v188
			c0,5.523,4.477,10,10,10h84v191c0,5.523,4.477,10,10,10h346c5.523,0,10-4.477,10-10V103
			C481,100.348,479.946,97.804,478.071,95.929z M388,34.142L446.858,93H388V34.142z M41,113h84h84v168h-84H41V113z M135,482V301h84
			c5.523,0,10-4.477,10-10V103c0-5.523-4.477-10-10-10h-84V20h233v83c0,5.523,4.477,10,10,10h83v369H135z"/>
		<path d="M151,137c0-5.523-4.477-10-10-10H67c-5.523,0-10,4.477-10,10s4.477,10,10,10h74C146.523,147,151,142.523,151,137z"/>
		<path d="M175,147h7c5.523,0,10-4.477,10-10s-4.477-10-10-10h-7c-5.523,0-10,4.477-10,10S169.477,147,175,147z"/>
	</g>
</g>
<g>
</g>
<g>
</g>
<g>
</g>
<g>
</g>
<g>
</g>
<g>
</g>
<g>
</g>
<g>
</g>
<g>
</g>
<g>
</g>
<g>
</g>
<g>
</g>
<g>
</g>
<g>
</g>
<g>
</g>
</svg>
